<svg xmlns="http://www.w3.org/2000/svg" viewBox="0 0 128 128" fill="none">
  <defs>
    <linearGradient id="blueGradient" x1="0%" y1="0%" x2="100%" y2="100%">
      <stop offset="0%" style="stop-color:#4A90E2;stop-opacity:1" />
      <stop offset="50%" style="stop-color:#5BA3F5;stop-opacity:1" />
      <stop offset="100%" style="stop-color:#3A7BD5;stop-opacity:1" />
    </linearGradient>
    <linearGradient id="shadowGradient" x1="0%" y1="0%" x2="100%" y2="100%">
      <stop offset="0%" style="stop-color:#2E5C8A;stop-opacity:0.3" />
      <stop offset="100%" style="stop-color:#1E3A5F;stop-opacity:0.1" />
    </linearGradient>
  </defs>
  
  <!-- Background circle for warmth -->
  <circle cx="64" cy="64" r="58" fill="url(#shadowGradient)" opacity="0.15"/>
  
  <!-- Main J letter -->
  <path d="M72 25 C76.4 25 80 28.6 80 33 L80 75 C80 90.5 67.5 103 52 103 C36.5 103 24 90.5 24 75 C24 70.6 27.6 67 32 67 C36.4 67 40 70.6 40 75 C40 81.6 45.4 87 52 87 C58.6 87 64 81.6 64 75 L64 33 C64 28.6 67.6 25 72 25 Z" fill="url(#blueGradient)"/>
  
  <!-- Subtle highlight -->
  <path d="M72 25 C74.2 25 76.2 26 77.6 27.6 C76.8 26.6 75.5 26 74 26 L74 33 L74 75 C74 87.7 63.7 98 51 98 C48.8 98 46.7 97.6 44.8 96.9 C48.3 100.4 53 102.5 58 102.5 C71.8 102.5 83 91.3 83 77.5 L83 33 C83 28.6 79.4 25 75 25 L72 25 Z" fill="url(#blueGradient)" opacity="0.3"/>
  
  <!-- Modern accent dot -->
  <circle cx="72" cy="18" r="4" fill="url(#blueGradient)" opacity="0.8"/>
  
  <style>
    @media (prefers-color-scheme: dark) {
      circle:first-of-type { opacity: 0.25; }
      path:first-of-type { filter: brightness(1.1); }
    }
  </style>
</svg> 